# xmcd
# 
# Track frame offsets:
#     150
#     14876
#     32123
#     48058
#     62443
#     75137
#     93966
#     110523
#     127300
#     145623
#     160624
#     179906
#     197914
#     211182
#     231443
#     250619
# 
# Disc length: 3744
# 
# Revision: 0
# Processed by: cddbd v1.5.2PL0 Copyright (c) Steve Scherf et al.
# Submitted via: fre:ac v1.0.31
# 
DISCID=d60e9e10
DTITLE=Ed Sheeran - Sheeran Best Mix
DYEAR=2017
DGENRE=Folk/Rock
TTITLE0=Intro Megamix
TTITLE1=Shape Of You
TTITLE2=Don't
TTITLE3=Drunk
TTITLE4=Galway Girl
TTITLE5=Castle On The Hill
TTITLE6=Lay It All On Me
TTITLE7=Sing
TTITLE8=Small Bump
TTITLE9=Photograph [Remix]
TTITLE10=The A Team
TTITLE11=Everything Has Chamged
TTITLE12=Lego House
TTITLE13=Thinking Out Loud
TTITLE14=I See Fire
TTITLE15=Make It Rain
EXTD=
EXTT0=
EXTT1=
EXTT2=
EXTT3=
EXTT4=
EXTT5=
EXTT6=
EXTT7=
EXTT8=
EXTT9=
EXTT10=
EXTT11=
EXTT12=
EXTT13=
EXTT14=
EXTT15=
PLAYORDER=
